<?xml version="1.0" encoding="iso-8859-1"?>
<!-- Generator: Adobe Illustrator 16.0.0, SVG Export Plug-In . SVG Version: 6.00 Build 0)  -->
<!DOCTYPE svg PUBLIC "-//W3C//DTD SVG 1.1//EN" "http://www.w3.org/Graphics/SVG/1.1/DTD/svg11.dtd">
<svg version="1.1" id="Layer_1" xmlns="http://www.w3.org/2000/svg" xmlns:xlink="http://www.w3.org/1999/xlink" x="0px" y="0px"
	 width="200px" height="100px" viewBox="0 0 200 100" enable-background="new 0 0 200 100" xml:space="preserve">
<g>
	<path d="M100.976,84.104c-1.171,0-2.133-0.358-2.885-1.069c-0.751-0.713-1.126-1.622-1.126-2.731c0-1.099,0.382-2.012,1.145-2.742
		c0.764-0.728,1.725-1.096,2.88-1.096c1.125,0,2.28,0.337,3.459,1.012v-1.553c-1.295-0.554-2.472-0.832-3.532-0.832
		c-1.537,0-2.83,0.503-3.877,1.503c-1.048,1.004-1.572,2.238-1.572,3.708c0,0.927,0.229,1.784,0.687,2.58
		c0.457,0.793,1.078,1.418,1.864,1.871c0.785,0.452,1.742,0.679,2.868,0.679c1.388,0,2.612-0.289,3.671-0.867v-1.589
		C103.395,83.727,102.199,84.104,100.976,84.104L100.976,84.104L100.976,84.104z M106.789,79.626
		c-0.676,0.65-1.016,1.461-1.016,2.433c0,0.964,0.334,1.767,1.006,2.408c0.668,0.645,1.502,0.966,2.498,0.966
		c1.031,0,1.885-0.316,2.566-0.951c0.676-0.633,1.018-1.427,1.018-2.386c0-0.989-0.334-1.81-1.002-2.462
		c-0.668-0.651-1.51-0.979-2.521-0.979C108.314,78.654,107.465,78.979,106.789,79.626L106.789,79.626z M110.883,80.461
		c0.43,0.416,0.645,0.937,0.645,1.568c0,0.638-0.205,1.156-0.619,1.563c-0.41,0.408-0.941,0.612-1.584,0.612
		c-0.65,0-1.188-0.202-1.602-0.603c-0.414-0.403-0.619-0.923-0.619-1.556c0-0.644,0.201-1.169,0.605-1.585
		c0.406-0.414,0.922-0.621,1.555-0.621C109.912,79.84,110.453,80.047,110.883,80.461L110.883,80.461z M114.293,78.671v6.646h1.342
		v-4.748c0.434-0.621,0.961-0.931,1.584-0.931c0.488,0,0.836,0.147,1.041,0.438c0.209,0.293,0.311,0.777,0.311,1.457v3.786h1.314
		v-3.801c0-0.81-0.094-1.401-0.279-1.774c-0.184-0.372-0.453-0.668-0.813-0.882c-0.357-0.213-0.738-0.32-1.154-0.32
		c-0.748,0-1.416,0.324-2.004,0.978v-0.847L114.293,78.671L114.293,78.671z M120.789,79.855h1.154v2.948
		c0,0.601,0.029,1.01,0.082,1.226c0.055,0.213,0.127,0.385,0.209,0.517c0.08,0.133,0.184,0.254,0.313,0.359
		c0.398,0.352,0.898,0.527,1.5,0.527c0.598,0,1.148-0.144,1.656-0.426v-1.23c-0.523,0.313-1.023,0.471-1.496,0.471
		c-0.629,0-0.943-0.38-0.943-1.14v-3.253h2.1v-1.186h-2.1v-1.374l-2.471,2.429v0.132H120.789z M132.313,81.941
		c0-1.035-0.264-1.861-0.787-2.478s-1.23-0.925-2.109-0.925c-0.916,0-1.66,0.316-2.232,0.949c-0.574,0.637-0.857,1.459-0.857,2.469
		c0,0.673,0.135,1.268,0.408,1.781s0.635,0.923,1.088,1.224c0.451,0.307,1.045,0.456,1.773,0.456c0.537,0,1.002-0.058,1.4-0.172
		c0.398-0.115,0.799-0.31,1.201-0.58V83.38c-0.729,0.54-1.531,0.81-2.398,0.81c-0.621,0-1.129-0.188-1.52-0.563
		c-0.395-0.378-0.607-0.882-0.639-1.518h4.672V81.941L132.313,81.941z M128.256,80.107c0.303-0.285,0.688-0.427,1.16-0.427
		s0.848,0.142,1.127,0.427c0.279,0.284,0.438,0.689,0.469,1.213h-3.346C127.758,80.797,127.955,80.392,128.256,80.107
		L128.256,80.107z M140.707,79.666c0.428,0,0.752,0.146,0.98,0.441c0.225,0.296,0.336,0.72,0.336,1.271v3.938h1.316v-3.924
		c0-0.969-0.209-1.688-0.625-2.158c-0.418-0.473-0.947-0.71-1.594-0.71c-0.768,0-1.502,0.404-2.203,1.214
		c-0.465-0.8-1.117-1.199-1.959-1.199c-0.643,0-1.293,0.336-1.965,1.004v-0.872h-1.314v6.646h1.314V80.49
		c0.295-0.318,0.555-0.54,0.787-0.665c0.229-0.125,0.479-0.188,0.754-0.188c0.492,0,0.838,0.147,1.035,0.438
		c0.195,0.293,0.295,0.807,0.295,1.544v3.699h1.322v-4.827C139.656,79.94,140.164,79.666,140.707,79.666L140.707,79.666
		L140.707,79.666z M146.4,88.706v-3.557c0.518,0.189,0.986,0.283,1.41,0.283c0.957,0,1.744-0.32,2.361-0.962
		c0.619-0.64,0.928-1.458,0.928-2.457c0-1.054-0.328-1.875-0.982-2.463c-0.658-0.586-1.578-0.88-2.756-0.88h-2.303v10.035H146.4
		L146.4,88.706z M148.736,80.127c0.316,0.151,0.57,0.394,0.754,0.725c0.186,0.332,0.279,0.718,0.279,1.147
		c0,0.676-0.195,1.227-0.588,1.655c-0.389,0.431-0.896,0.646-1.51,0.646c-0.441,0-0.863-0.104-1.268-0.312v-4.089h0.928
		C147.949,79.897,148.414,79.975,148.736,80.127L148.736,80.127z M153.178,79.626c-0.678,0.65-1.016,1.461-1.016,2.433
		c0,0.964,0.334,1.767,1.006,2.408c0.668,0.645,1.502,0.966,2.498,0.966c1.031,0,1.885-0.316,2.566-0.951
		c0.678-0.633,1.018-1.427,1.018-2.386c0-0.989-0.334-1.81-1.002-2.462c-0.668-0.651-1.51-0.979-2.521-0.979
		C154.703,78.654,153.855,78.979,153.178,79.626L153.178,79.626z M157.271,80.461c0.43,0.416,0.646,0.937,0.646,1.568
		c0,0.638-0.207,1.156-0.621,1.563c-0.41,0.408-0.938,0.612-1.586,0.612c-0.652,0-1.186-0.202-1.6-0.603
		c-0.414-0.403-0.619-0.923-0.619-1.556c0-0.644,0.201-1.169,0.607-1.585c0.404-0.414,0.924-0.621,1.551-0.621
		C156.303,79.84,156.842,80.047,157.271,80.461L157.271,80.461z M160.797,78.671v6.646h1.32v-3.473c0-0.555,0.16-1.034,0.469-1.439
		c0.313-0.404,0.678-0.606,1.102-0.606c0.389,0,0.813,0.217,1.27,0.65l0.693-1.156c-0.537-0.501-1.057-0.751-1.551-0.751
		c-0.637,0-1.27,0.514-1.908,1.539l-0.074,0.117v-1.525L160.797,78.671L160.797,78.671z M170.697,80.184
		c-0.027-0.198-0.102-0.398-0.219-0.6c-0.111-0.199-0.242-0.361-0.387-0.479c-0.438-0.378-1.01-0.565-1.732-0.565
		c-0.957,0-1.689,0.304-2.203,0.905v1.438c0.682-0.742,1.379-1.114,2.094-1.114c0.803,0,1.201,0.399,1.201,1.199v0.354l-1.682,0.579
		c-0.557,0.191-0.982,0.453-1.281,0.785c-0.303,0.329-0.453,0.704-0.453,1.123c0,0.462,0.156,0.849,0.463,1.152
		c0.311,0.309,0.693,0.459,1.156,0.459c0.629,0,1.227-0.216,1.785-0.651c0.102,0.446,0.434,0.666,0.994,0.666
		c0.199,0,0.389-0.033,0.566-0.103c0.184-0.069,0.424-0.2,0.723-0.394v-0.803c-0.338,0.236-0.588,0.354-0.746,0.354
		c-0.154,0-0.23-0.111-0.23-0.339v-2.826C170.746,80.762,170.73,80.384,170.697,80.184L170.697,80.184z M168.289,84.517
		c-0.279,0-0.508-0.088-0.684-0.262c-0.174-0.172-0.264-0.396-0.264-0.671c0-0.27,0.096-0.494,0.283-0.676
		c0.182-0.179,0.5-0.359,0.947-0.536l0.879-0.341v1.972C169.096,84.344,168.707,84.517,168.289,84.517L168.289,84.517
		L168.289,84.517z M172.855,78.671v6.646h1.344v-4.748c0.436-0.621,0.963-0.931,1.582-0.931c0.484,0,0.832,0.147,1.041,0.438
		c0.205,0.293,0.311,0.777,0.311,1.457v3.786h1.314v-3.801c0-0.81-0.09-1.401-0.277-1.774c-0.186-0.371-0.459-0.668-0.814-0.882
		c-0.354-0.213-0.742-0.32-1.156-0.32c-0.746,0-1.414,0.324-2,0.978v-0.847L172.855,78.671L172.855,78.671z M185.949,81.941
		c0-1.035-0.264-1.861-0.787-2.478c-0.527-0.616-1.23-0.925-2.113-0.925c-0.912,0-1.656,0.316-2.232,0.949
		c-0.57,0.637-0.854,1.459-0.854,2.469c0,0.673,0.135,1.268,0.408,1.781c0.27,0.514,0.633,0.923,1.082,1.224
		c0.455,0.307,1.051,0.456,1.779,0.456c0.533,0,1.002-0.058,1.4-0.172c0.398-0.115,0.795-0.31,1.201-0.58V83.38
		c-0.73,0.54-1.533,0.81-2.4,0.81c-0.623,0-1.129-0.188-1.521-0.563c-0.393-0.378-0.604-0.882-0.639-1.518h4.676V81.941
		L185.949,81.941z M181.891,80.107c0.301-0.285,0.686-0.427,1.158-0.427s0.852,0.142,1.131,0.427
		c0.279,0.284,0.436,0.689,0.469,1.213h-3.346C181.395,80.797,181.592,80.392,181.891,80.107L181.891,80.107z M191.502,80.184
		c-0.033-0.198-0.104-0.398-0.219-0.6c-0.119-0.199-0.248-0.361-0.393-0.479c-0.434-0.378-1.008-0.565-1.727-0.565
		c-0.957,0-1.693,0.304-2.203,0.905v1.438c0.678-0.742,1.377-1.114,2.094-1.114c0.803,0,1.201,0.399,1.201,1.199v0.354l-1.684,0.579
		c-0.555,0.191-0.982,0.453-1.285,0.785c-0.297,0.329-0.449,0.704-0.449,1.123c0,0.462,0.154,0.849,0.459,1.152
		c0.313,0.309,0.697,0.459,1.156,0.459c0.633,0,1.227-0.216,1.787-0.651c0.102,0.446,0.436,0.666,0.998,0.666
		c0.195,0,0.385-0.033,0.564-0.103c0.184-0.069,0.422-0.2,0.723-0.394v-0.803c-0.34,0.236-0.588,0.354-0.744,0.354
		c-0.154,0-0.234-0.111-0.234-0.339v-2.826C191.547,80.762,191.533,80.384,191.502,80.184L191.502,80.184z M189.094,84.517
		c-0.283,0-0.508-0.088-0.686-0.262c-0.176-0.172-0.262-0.396-0.262-0.671c0-0.27,0.096-0.494,0.279-0.676
		c0.182-0.179,0.504-0.359,0.949-0.536l0.881-0.341v1.972C189.898,84.344,189.51,84.517,189.094,84.517L189.094,84.517
		L189.094,84.517z"/>
	<path d="M95.859,69.354h5.861v-1.286h-4.417v-3.136h4.134V63.64h-4.134v-3.078h4.279v-1.288h-5.723V69.354L95.859,69.354z
		 M103.021,68.998c0.277,0.14,0.654,0.257,1.131,0.347c0.475,0.095,0.924,0.138,1.354,0.138c1.07,0,1.924-0.314,2.561-0.948
		c0.643-0.635,0.957-1.484,0.957-2.557c0-0.994-0.268-1.813-0.797-2.447c-0.535-0.638-1.227-0.954-2.07-0.954
		c-0.646,0-1.254,0.208-1.818,0.623v-3.927h-1.314v9.726H103.021z M105.832,63.805c0.555,0,1.002,0.207,1.348,0.622
		c0.344,0.415,0.514,0.948,0.514,1.61c0,0.65-0.184,1.182-0.553,1.596c-0.371,0.416-0.848,0.621-1.426,0.621
		c-0.471,0-0.932-0.065-1.381-0.2v-3.599C104.842,64.023,105.34,63.805,105.832,63.805L105.832,63.805L105.832,63.805z
		 M110.564,62.723v6.646h1.324v-3.476c0-0.554,0.152-1.033,0.465-1.438c0.309-0.404,0.674-0.606,1.098-0.606
		c0.393,0,0.816,0.217,1.275,0.651l0.693-1.157c-0.543-0.503-1.059-0.752-1.555-0.752c-0.635,0-1.271,0.513-1.906,1.538l-0.07,0.117
		v-1.523H110.564L110.564,62.723z M120.465,64.235c-0.031-0.199-0.102-0.4-0.217-0.601c-0.117-0.199-0.248-0.359-0.393-0.48
		c-0.434-0.375-1.006-0.563-1.729-0.563c-0.957,0-1.691,0.302-2.203,0.904v1.438c0.678-0.742,1.379-1.113,2.098-1.113
		c0.801,0,1.197,0.399,1.197,1.198v0.353l-1.682,0.582c-0.557,0.19-0.982,0.451-1.281,0.783c-0.303,0.329-0.449,0.705-0.449,1.126
		c0,0.459,0.152,0.846,0.461,1.151c0.309,0.307,0.693,0.457,1.156,0.457c0.633,0,1.225-0.217,1.783-0.65
		c0.102,0.443,0.436,0.663,0.996,0.663c0.197,0,0.387-0.033,0.57-0.103c0.178-0.069,0.418-0.2,0.721-0.394v-0.803
		c-0.338,0.237-0.588,0.354-0.746,0.354c-0.154,0-0.23-0.112-0.23-0.337v-2.829C120.514,64.812,120.498,64.436,120.465,64.235
		L120.465,64.235z M118.057,68.565c-0.279,0-0.508-0.086-0.684-0.262c-0.174-0.17-0.264-0.396-0.264-0.671
		c0-0.268,0.096-0.494,0.279-0.674c0.188-0.181,0.504-0.361,0.951-0.537l0.879-0.34v1.972
		C118.863,68.396,118.475,68.565,118.057,68.565L118.057,68.565L118.057,68.565z M122.797,60.158
		c-0.154,0.157-0.23,0.336-0.23,0.538c0,0.207,0.076,0.391,0.23,0.546c0.158,0.156,0.334,0.236,0.537,0.236
		c0.215,0,0.4-0.079,0.555-0.233s0.234-0.337,0.234-0.549c0-0.217-0.08-0.399-0.234-0.549s-0.34-0.224-0.555-0.224
		C123.131,59.926,122.951,60.001,122.797,60.158L122.797,60.158z M122.682,69.369h1.313v-6.646h-1.313V69.369L122.682,69.369z
		 M129.139,68.254c-0.695,0-1.252-0.198-1.662-0.597c-0.414-0.4-0.621-0.939-0.621-1.619c0-0.646,0.193-1.177,0.572-1.593
		c0.383-0.417,0.867-0.626,1.461-0.626c0.568,0,1.186,0.212,1.85,0.636v-1.401c-0.4-0.179-0.738-0.302-1.008-0.366
		c-0.273-0.066-0.578-0.098-0.922-0.098c-0.982,0-1.775,0.317-2.377,0.961c-0.604,0.642-0.904,1.48-0.904,2.529
		c0,1.036,0.311,1.861,0.928,2.478c0.619,0.617,1.447,0.925,2.492,0.925c0.629,0,1.275-0.122,1.936-0.367v-1.301
		C130.225,68.106,129.646,68.254,129.139,68.254L129.139,68.254L129.139,68.254z M136.506,64.235
		c-0.027-0.199-0.102-0.4-0.217-0.601c-0.113-0.199-0.244-0.359-0.393-0.48c-0.434-0.375-1.006-0.563-1.729-0.563
		c-0.957,0-1.688,0.302-2.203,0.904v1.438c0.682-0.742,1.379-1.113,2.094-1.113c0.805,0,1.201,0.399,1.201,1.198v0.353l-1.682,0.582
		c-0.557,0.19-0.982,0.451-1.285,0.783c-0.299,0.329-0.449,0.705-0.449,1.126c0,0.459,0.158,0.846,0.463,1.151
		c0.311,0.307,0.693,0.457,1.156,0.457c0.629,0,1.223-0.217,1.785-0.65c0.1,0.443,0.434,0.663,0.996,0.663
		c0.199,0,0.389-0.033,0.568-0.103s0.42-0.2,0.719-0.394v-0.803c-0.338,0.237-0.584,0.354-0.746,0.354
		c-0.152,0-0.23-0.112-0.23-0.337v-2.829C136.555,64.812,136.539,64.436,136.506,64.235L136.506,64.235z M134.098,68.565
		c-0.279,0-0.508-0.086-0.684-0.262c-0.174-0.17-0.264-0.396-0.264-0.671c0-0.268,0.096-0.494,0.283-0.674
		c0.184-0.181,0.5-0.361,0.947-0.537l0.879-0.34v1.972C134.904,68.396,134.516,68.565,134.098,68.565L134.098,68.565L134.098,68.565
		z"/>
	<path d="M99.068,53.404c0.896,0,1.503-0.027,1.82-0.073c0.319-0.052,0.667-0.154,1.048-0.304c0.65-0.242,1.223-0.608,1.715-1.09
		c0.482-0.469,0.852-1.009,1.111-1.625s0.393-1.264,0.393-1.938c0-0.944-0.238-1.814-0.711-2.616c-0.475-0.8-1.109-1.405-1.91-1.818
		c-0.799-0.411-1.885-0.618-3.258-0.618h-3.404v10.081L99.068,53.404L99.068,53.404z M100.635,44.689
		c0.314,0.053,0.645,0.162,0.996,0.326c0.347,0.163,0.656,0.373,0.926,0.628c0.734,0.684,1.1,1.569,1.1,2.653
		c0,1.103-0.357,2.017-1.068,2.738c-0.224,0.222-0.469,0.409-0.736,0.561c-0.266,0.152-0.6,0.275-1,0.375
		c-0.399,0.1-0.96,0.15-1.684,0.15h-1.85v-7.507h1.807C99.819,44.61,100.322,44.638,100.635,44.689L100.635,44.689z M107.408,47.73
		c-0.674,0.647-1.012,1.458-1.012,2.431c0,0.964,0.334,1.767,1.002,2.41c0.672,0.644,1.502,0.967,2.502,0.967
		c1.031,0,1.885-0.317,2.563-0.95c0.68-0.633,1.021-1.432,1.021-2.388c0-0.989-0.338-1.81-1.002-2.461
		c-0.672-0.654-1.51-0.978-2.525-0.978C108.938,46.755,108.086,47.082,107.408,47.73L107.408,47.73z M111.502,48.562
		c0.432,0.414,0.646,0.938,0.646,1.569c0,0.636-0.205,1.158-0.617,1.564c-0.41,0.408-0.941,0.611-1.586,0.611
		c-0.652,0-1.186-0.203-1.6-0.603c-0.414-0.403-0.623-0.923-0.623-1.557c0-0.641,0.203-1.169,0.609-1.583s0.926-0.622,1.553-0.622
		C110.535,47.942,111.076,48.147,111.502,48.562L111.502,48.562z M118.189,52.307c-0.701,0-1.256-0.199-1.668-0.6
		c-0.414-0.399-0.619-0.939-0.619-1.618c0-0.646,0.193-1.177,0.572-1.593c0.381-0.417,0.867-0.626,1.461-0.626
		c0.57,0,1.188,0.212,1.85,0.636v-1.4c-0.402-0.18-0.736-0.302-1.006-0.366c-0.273-0.065-0.584-0.098-0.924-0.098
		c-0.984,0-1.777,0.319-2.377,0.962c-0.602,0.641-0.906,1.482-0.906,2.529c0,1.036,0.313,1.861,0.928,2.477
		c0.621,0.617,1.453,0.928,2.492,0.928c0.631,0,1.275-0.126,1.938-0.371v-1.301C119.271,52.158,118.693,52.307,118.189,52.307
		L118.189,52.307L118.189,52.307z M126.973,53.419v-6.646h-1.314v4.747c-0.439,0.611-0.973,0.92-1.6,0.92
		c-0.498,0-0.848-0.138-1.049-0.418c-0.199-0.273-0.299-0.764-0.299-1.46v-3.788h-1.316v3.807c0,0.834,0.092,1.43,0.271,1.787
		c0.178,0.359,0.443,0.645,0.797,0.854c0.359,0.209,0.742,0.315,1.162,0.315c0.359,0,0.717-0.089,1.072-0.256
		c0.361-0.172,0.678-0.408,0.957-0.715v0.853H126.973L126.973,53.419z M135.797,47.769c0.424,0,0.748,0.146,0.973,0.442
		c0.232,0.293,0.342,0.718,0.342,1.27v3.938h1.316v-3.924c0-0.968-0.209-1.688-0.627-2.16c-0.418-0.472-0.947-0.707-1.594-0.707
		c-0.766,0-1.498,0.405-2.205,1.212c-0.459-0.798-1.115-1.199-1.955-1.199c-0.641,0-1.299,0.335-1.963,1.003v-0.872h-1.32v6.646
		h1.32v-4.827c0.293-0.316,0.555-0.54,0.783-0.663c0.229-0.127,0.482-0.189,0.754-0.189c0.492,0,0.836,0.146,1.035,0.437
		c0.199,0.293,0.295,0.806,0.295,1.543v3.699h1.324v-4.827C134.744,48.043,135.25,47.769,135.797,47.769L135.797,47.769
		L135.797,47.769z M145.896,50.044c0-1.037-0.26-1.863-0.787-2.479c-0.525-0.617-1.227-0.925-2.109-0.925
		c-0.916,0-1.66,0.316-2.229,0.951c-0.578,0.634-0.861,1.457-0.861,2.468c0,0.674,0.135,1.267,0.408,1.781
		c0.273,0.512,0.637,0.921,1.086,1.225c0.453,0.305,1.047,0.454,1.779,0.454c0.535,0,0.998-0.056,1.4-0.172
		c0.395-0.115,0.795-0.31,1.201-0.577v-1.287c-0.732,0.541-1.535,0.811-2.4,0.811c-0.623,0-1.129-0.189-1.521-0.566
		c-0.393-0.374-0.604-0.881-0.643-1.517h4.676V50.044L145.896,50.044z M141.84,48.208c0.303-0.284,0.688-0.427,1.16-0.427
		s0.852,0.143,1.131,0.427s0.436,0.689,0.465,1.212h-3.342C141.344,48.899,141.539,48.493,141.84,48.208L141.84,48.208z
		 M147.291,46.773v6.646h1.346v-4.748c0.434-0.621,0.959-0.931,1.582-0.931c0.486,0,0.832,0.146,1.037,0.437
		c0.209,0.292,0.313,0.778,0.313,1.456v3.786h1.316v-3.8c0-0.81-0.094-1.4-0.279-1.774c-0.186-0.373-0.455-0.667-0.813-0.882
		c-0.355-0.213-0.742-0.321-1.156-0.321c-0.748,0-1.412,0.324-2,0.976v-0.845H147.291L147.291,46.773z M153.787,47.955h1.156v2.948
		c0,0.603,0.025,1.011,0.084,1.226c0.055,0.213,0.125,0.388,0.205,0.52c0.084,0.132,0.186,0.25,0.313,0.357
		c0.4,0.353,0.898,0.529,1.502,0.529c0.598,0,1.15-0.145,1.654-0.43v-1.229c-0.527,0.315-1.025,0.471-1.496,0.471
		c-0.631,0-0.947-0.379-0.947-1.139v-3.255h2.104V46.77h-2.104v-1.373l-2.471,2.426V47.955L153.787,47.955z M163.777,48.284
		c-0.031-0.199-0.102-0.4-0.221-0.601c-0.113-0.199-0.24-0.36-0.385-0.48c-0.438-0.375-1.012-0.564-1.732-0.564
		c-0.959,0-1.689,0.302-2.203,0.904v1.437c0.678-0.742,1.379-1.113,2.094-1.113c0.801,0,1.201,0.401,1.201,1.2v0.353L160.846,50
		c-0.553,0.193-0.979,0.455-1.281,0.784c-0.301,0.329-0.453,0.705-0.453,1.124c0,0.463,0.158,0.846,0.467,1.152
		s0.689,0.458,1.156,0.458c0.629,0,1.223-0.217,1.781-0.648c0.105,0.441,0.434,0.665,1,0.665c0.195,0,0.385-0.037,0.564-0.106
		c0.184-0.069,0.42-0.2,0.719-0.394v-0.799c-0.336,0.234-0.58,0.353-0.742,0.353c-0.156,0-0.23-0.114-0.23-0.341v-2.826
		C163.826,48.864,163.807,48.486,163.777,48.284L163.777,48.284z M161.367,52.616c-0.281,0-0.508-0.087-0.682-0.261
		c-0.174-0.171-0.264-0.396-0.264-0.67c0-0.271,0.094-0.496,0.277-0.677c0.186-0.181,0.504-0.359,0.949-0.538l0.883-0.34v1.972
		C162.176,52.447,161.787,52.616,161.367,52.616L161.367,52.616L161.367,52.616z M165.342,48h3.35l-3.494,5.418h5.822v-1.229h-3.52
		l3.52-5.418h-5.678V48L165.342,48z M172.277,44.209c-0.154,0.157-0.23,0.335-0.23,0.538c0,0.208,0.076,0.39,0.23,0.546
		s0.332,0.236,0.533,0.236c0.219,0,0.404-0.079,0.559-0.233c0.152-0.154,0.229-0.337,0.229-0.549c0-0.217-0.076-0.4-0.229-0.549
		c-0.154-0.149-0.34-0.223-0.559-0.223C172.609,43.975,172.432,44.051,172.277,44.209L172.277,44.209z M172.162,53.419h1.316v-6.646
		h-1.316V53.419L172.162,53.419z M176.01,47.73c-0.678,0.647-1.016,1.458-1.016,2.431c0,0.964,0.334,1.767,1.002,2.41
		c0.672,0.644,1.504,0.967,2.502,0.967c1.031,0,1.885-0.317,2.566-0.95c0.678-0.633,1.018-1.432,1.018-2.388
		c0-0.989-0.334-1.81-1.002-2.461c-0.67-0.654-1.512-0.978-2.523-0.978C177.535,46.755,176.684,47.082,176.01,47.73L176.01,47.73z
		 M180.102,48.562c0.43,0.414,0.645,0.938,0.645,1.569c0,0.636-0.205,1.158-0.617,1.564c-0.414,0.408-0.939,0.611-1.586,0.611
		c-0.652,0-1.186-0.203-1.6-0.603c-0.414-0.403-0.619-0.923-0.619-1.557c0-0.641,0.203-1.169,0.607-1.583s0.922-0.622,1.555-0.622
		C179.135,47.942,179.674,48.147,180.102,48.562L180.102,48.562z M183.516,46.773v6.646h1.342v-4.748
		c0.434-0.621,0.959-0.931,1.582-0.931c0.486,0,0.832,0.146,1.041,0.437c0.205,0.292,0.313,0.778,0.313,1.456v3.786h1.313v-3.8
		c0-0.81-0.094-1.4-0.275-1.774c-0.188-0.373-0.459-0.667-0.816-0.882c-0.354-0.213-0.742-0.321-1.156-0.321
		c-0.744,0-1.412,0.324-2,0.976v-0.845H183.516L183.516,46.773z M196.607,50.044c0-1.037-0.264-1.863-0.789-2.479
		c-0.523-0.617-1.227-0.925-2.111-0.925c-0.912,0-1.656,0.316-2.229,0.951c-0.574,0.634-0.859,1.457-0.859,2.468
		c0,0.674,0.137,1.267,0.41,1.781c0.27,0.512,0.633,0.921,1.086,1.225c0.453,0.305,1.047,0.454,1.779,0.454
		c0.533,0,0.998-0.056,1.396-0.172c0.398-0.115,0.799-0.31,1.205-0.577v-1.287c-0.732,0.541-1.533,0.811-2.4,0.811
		c-0.623,0-1.133-0.189-1.521-0.566c-0.393-0.374-0.607-0.881-0.643-1.517h4.68v-0.166H196.607z M192.549,48.208
		c0.305-0.284,0.688-0.427,1.158-0.427c0.473,0,0.852,0.143,1.131,0.427s0.438,0.689,0.469,1.212h-3.342
		C192.051,48.899,192.25,48.493,192.549,48.208L192.549,48.208z"/>
	<path d="M100.976,36.254c-1.171,0-2.133-0.356-2.885-1.067c-0.751-0.715-1.126-1.624-1.126-2.731c0-1.098,0.382-2.014,1.145-2.743
		c0.764-0.73,1.725-1.095,2.88-1.095c1.125,0,2.28,0.337,3.459,1.01v-1.551c-1.295-0.554-2.472-0.832-3.532-0.832
		c-1.537,0-2.83,0.501-3.877,1.503c-1.048,1.002-1.572,2.237-1.572,3.708c0,0.923,0.229,1.784,0.687,2.579
		c0.457,0.795,1.078,1.418,1.864,1.873c0.785,0.451,1.742,0.679,2.868,0.679c1.388,0,2.612-0.291,3.671-0.869v-1.588
		C103.395,35.881,102.199,36.254,100.976,36.254L100.976,36.254L100.976,36.254z M111.82,34.094c0-1.036-0.264-1.862-0.787-2.479
		s-1.23-0.925-2.109-0.925c-0.916,0-1.66,0.318-2.232,0.951c-0.574,0.634-0.857,1.456-0.857,2.468c0,0.674,0.135,1.267,0.408,1.781
		c0.273,0.512,0.633,0.922,1.086,1.225c0.453,0.304,1.047,0.455,1.775,0.455c0.537,0,1.002-0.056,1.4-0.172
		c0.398-0.117,0.797-0.31,1.201-0.58v-1.285c-0.729,0.54-1.531,0.808-2.398,0.808c-0.621,0-1.129-0.186-1.52-0.563
		c-0.395-0.374-0.607-0.882-0.639-1.518h4.672V34.094L111.82,34.094z M107.764,32.259c0.303-0.284,0.688-0.426,1.16-0.426
		s0.848,0.142,1.127,0.426s0.439,0.688,0.469,1.214h-3.346C107.266,32.948,107.463,32.543,107.764,32.259L107.764,32.259z
		 M113.215,30.822v6.646h1.346v-4.747c0.434-0.622,0.959-0.933,1.582-0.933c0.484,0,0.832,0.146,1.041,0.437
		c0.205,0.293,0.311,0.779,0.311,1.458v3.785h1.318v-3.801c0-0.808-0.094-1.4-0.279-1.773c-0.184-0.374-0.457-0.668-0.813-0.881
		c-0.357-0.214-0.742-0.323-1.156-0.323c-0.746,0-1.414,0.326-2.002,0.976v-0.845H113.215L113.215,30.822z M119.711,32.005h1.156
		v2.948c0,0.602,0.031,1.011,0.084,1.225c0.055,0.213,0.125,0.389,0.205,0.52c0.086,0.133,0.186,0.252,0.311,0.358
		c0.398,0.352,0.902,0.528,1.504,0.528c0.598,0,1.15-0.143,1.654-0.427v-1.23c-0.523,0.314-1.021,0.47-1.494,0.47
		c-0.633,0-0.947-0.379-0.947-1.138v-3.255h2.104v-1.184h-2.104v-1.373l-2.473,2.426V32.005L119.711,32.005z M125.658,30.822v6.646
		h1.324v-3.475c0-0.554,0.156-1.034,0.465-1.438c0.311-0.405,0.678-0.607,1.102-0.607c0.393,0,0.813,0.217,1.271,0.652l0.693-1.158
		c-0.539-0.5-1.057-0.751-1.555-0.751c-0.635,0-1.268,0.512-1.906,1.538l-0.07,0.117v-1.524H125.658L125.658,30.822z
		 M131.695,31.779c-0.678,0.647-1.014,1.458-1.014,2.431c0,0.963,0.334,1.767,1.004,2.41c0.668,0.643,1.504,0.965,2.5,0.965
		c1.033,0,1.885-0.318,2.568-0.951c0.678-0.634,1.018-1.429,1.018-2.388c0-0.989-0.334-1.81-1.004-2.461
		c-0.668-0.654-1.51-0.978-2.521-0.978C133.221,30.808,132.373,31.13,131.695,31.779L131.695,31.779z M135.791,32.612
		c0.426,0.415,0.643,0.938,0.643,1.569c0,0.636-0.207,1.158-0.621,1.564c-0.41,0.408-0.938,0.612-1.582,0.612
		c-0.65,0-1.186-0.202-1.6-0.604c-0.414-0.403-0.623-0.923-0.623-1.557c0-0.641,0.201-1.169,0.609-1.583
		c0.404-0.414,0.922-0.622,1.551-0.622C134.82,31.991,135.359,32.198,135.791,32.612L135.791,32.612z M147.775,30.958
		c-0.52-0.188-1.002-0.281-1.445-0.281c-0.953,0-1.736,0.315-2.35,0.946c-0.617,0.631-0.922,1.436-0.922,2.414
		c0,1.045,0.291,1.879,0.877,2.5c0.584,0.622,1.367,0.932,2.354,0.932h2.809V27.375h-1.322V30.958L147.775,30.958z M146.758,36.341
		c-0.588,0-0.996-0.037-1.221-0.114c-0.229-0.077-0.443-0.228-0.645-0.45c-0.338-0.37-0.506-0.898-0.506-1.582
		c0-0.729,0.193-1.306,0.582-1.734s0.908-0.644,1.564-0.644c0.416,0,0.832,0.104,1.242,0.312v4.212H146.758L146.758,36.341z
		 M151.029,28.259c-0.154,0.157-0.232,0.335-0.232,0.538c0,0.207,0.078,0.39,0.232,0.546c0.156,0.157,0.33,0.236,0.533,0.236
		c0.217,0,0.404-0.077,0.555-0.233c0.158-0.154,0.234-0.337,0.234-0.549c0-0.217-0.076-0.4-0.234-0.549
		c-0.15-0.149-0.338-0.223-0.555-0.223C151.359,28.025,151.184,28.102,151.029,28.259L151.029,28.259z M150.91,37.468h1.316v-6.646
		h-1.316V37.468L150.91,37.468z"/>
	<path d="M95.873,21.519h1.445v-4.703h3.938v-1.286h-3.938v-2.816h3.938v-1.288h-5.383V21.519L95.873,21.519z M103.031,15.83
		c-0.678,0.648-1.016,1.458-1.016,2.433c0,0.963,0.334,1.765,1.006,2.409c0.668,0.642,1.506,0.965,2.498,0.965
		c1.031,0,1.885-0.318,2.568-0.951c0.676-0.633,1.016-1.429,1.016-2.388c0-0.987-0.334-1.808-1.002-2.461
		c-0.668-0.652-1.51-0.978-2.521-0.978C104.557,14.858,103.709,15.182,103.031,15.83L103.031,15.83z M107.125,16.665
		c0.428,0.414,0.643,0.938,0.643,1.569c0,0.636-0.205,1.158-0.617,1.564c-0.41,0.408-0.939,0.612-1.586,0.612
		c-0.652,0-1.186-0.203-1.6-0.604c-0.414-0.403-0.621-0.922-0.621-1.558c0-0.641,0.203-1.169,0.609-1.583
		c0.404-0.415,0.922-0.622,1.553-0.622C106.156,16.042,106.695,16.249,107.125,16.665L107.125,16.665z M110.535,14.871v6.648h1.344
		v-4.747c0.434-0.622,0.963-0.933,1.582-0.933c0.486,0,0.832,0.146,1.041,0.438c0.205,0.292,0.311,0.777,0.311,1.457v3.785h1.318
		v-3.799c0-0.809-0.094-1.402-0.279-1.774c-0.184-0.374-0.457-0.668-0.811-0.881c-0.359-0.213-0.744-0.323-1.156-0.323
		c-0.748,0-1.416,0.326-2.004,0.977v-0.847H110.535L110.535,14.871z M122.398,15.009c-0.518-0.188-0.998-0.281-1.445-0.281
		c-0.953,0-1.736,0.316-2.35,0.946c-0.613,0.631-0.922,1.436-0.922,2.413c0,1.045,0.291,1.879,0.877,2.502
		c0.588,0.62,1.371,0.93,2.35,0.93h2.814V11.425h-1.324V15.009L122.398,15.009z M121.381,20.393c-0.588,0-0.996-0.039-1.223-0.116
		s-0.441-0.227-0.643-0.45c-0.338-0.369-0.504-0.897-0.504-1.582c0-0.728,0.191-1.306,0.58-1.734s0.908-0.642,1.564-0.642
		c0.42,0,0.834,0.103,1.242,0.31v4.213H121.381L121.381,20.393z M129.637,16.385c-0.031-0.199-0.102-0.4-0.221-0.601
		c-0.115-0.198-0.248-0.36-0.393-0.48c-0.434-0.374-1.008-0.563-1.725-0.563c-0.959,0-1.695,0.304-2.205,0.904v1.437
		c0.68-0.74,1.381-1.113,2.096-1.113c0.801,0,1.201,0.401,1.201,1.201v0.353l-1.686,0.578c-0.553,0.193-0.979,0.455-1.281,0.785
		c-0.301,0.328-0.453,0.703-0.453,1.123c0,0.462,0.154,0.846,0.463,1.153c0.309,0.305,0.693,0.459,1.156,0.459
		c0.629,0,1.227-0.218,1.785-0.652c0.1,0.445,0.434,0.667,0.996,0.667c0.199,0,0.385-0.035,0.568-0.106
		c0.18-0.069,0.42-0.201,0.719-0.392v-0.803c-0.336,0.234-0.584,0.354-0.744,0.354c-0.154,0-0.232-0.114-0.232-0.339v-2.826
		C129.682,16.965,129.666,16.586,129.637,16.385L129.637,16.385z M127.227,20.717c-0.281,0-0.508-0.087-0.682-0.26
		c-0.178-0.173-0.264-0.396-0.264-0.671c0-0.27,0.09-0.495,0.277-0.676c0.182-0.181,0.5-0.36,0.949-0.54l0.883-0.339v1.974
		C128.031,20.547,127.646,20.717,127.227,20.717L127.227,20.717L127.227,20.717z M131.201,16.101h3.346l-3.494,5.418h5.826V20.29
		h-3.52l3.52-5.419h-5.678V16.101L131.201,16.101z M138.139,12.313c-0.154,0.156-0.234,0.335-0.234,0.538
		c0,0.207,0.08,0.388,0.234,0.546c0.154,0.156,0.33,0.234,0.533,0.234c0.217,0,0.4-0.077,0.559-0.231
		c0.15-0.156,0.227-0.337,0.227-0.549c0-0.219-0.076-0.4-0.227-0.549c-0.158-0.151-0.342-0.225-0.559-0.225
		C138.469,12.075,138.293,12.152,138.139,12.313L138.139,12.313z M138.021,21.519h1.314v-6.648h-1.314V21.519L138.021,21.519z
		 M141.869,15.83c-0.678,0.648-1.018,1.458-1.018,2.433c0,0.963,0.338,1.765,1.006,2.409c0.67,0.642,1.502,0.965,2.502,0.965
		c1.029,0,1.881-0.318,2.564-0.951c0.678-0.633,1.02-1.429,1.02-2.388c0-0.987-0.334-1.808-1.006-2.461
		c-0.672-0.652-1.51-0.978-2.521-0.978C143.395,14.858,142.545,15.182,141.869,15.83L141.869,15.83z M145.961,16.665
		c0.434,0.414,0.646,0.938,0.646,1.569c0,0.636-0.207,1.158-0.617,1.564c-0.412,0.408-0.938,0.612-1.586,0.612
		c-0.652,0-1.186-0.203-1.6-0.604c-0.414-0.403-0.621-0.922-0.621-1.558c0-0.641,0.203-1.169,0.607-1.583
		c0.404-0.415,0.926-0.622,1.551-0.622C144.994,16.042,145.533,16.249,145.961,16.665L145.961,16.665z M149.371,14.871v6.648h1.346
		v-4.747c0.434-0.622,0.961-0.933,1.58-0.933c0.488,0,0.836,0.146,1.045,0.438c0.205,0.292,0.311,0.777,0.311,1.457v3.785h1.316
		v-3.799c0-0.809-0.096-1.402-0.279-1.774c-0.184-0.374-0.455-0.668-0.813-0.881c-0.355-0.213-0.742-0.323-1.156-0.323
		c-0.744,0-1.412,0.326-2,0.977v-0.847H149.371L149.371,14.871z M162.465,18.145c0-1.036-0.26-1.861-0.787-2.478
		c-0.523-0.617-1.23-0.927-2.109-0.927c-0.916,0-1.66,0.318-2.232,0.951c-0.572,0.634-0.857,1.457-0.857,2.468
		c0,0.675,0.135,1.269,0.408,1.781c0.273,0.514,0.635,0.923,1.088,1.225c0.449,0.304,1.047,0.456,1.775,0.456
		c0.533,0,1-0.058,1.4-0.173c0.396-0.117,0.797-0.308,1.201-0.578v-1.286c-0.729,0.54-1.535,0.81-2.398,0.81
		c-0.623,0-1.131-0.188-1.521-0.565c-0.393-0.374-0.607-0.88-0.641-1.518h4.674V18.145L162.465,18.145z M158.408,16.31
		c0.303-0.284,0.688-0.425,1.16-0.425c0.471,0,0.848,0.141,1.127,0.425c0.283,0.284,0.439,0.689,0.469,1.214h-3.34
		C157.91,16.999,158.107,16.595,158.408,16.31L158.408,16.31z"/>
	<polygon fill="none" stroke="#000000" stroke-width="4.9327" points="5.625,11.295 5.625,85.713 80.042,85.713 80.042,11.295 	"/>
	<path d="M39.058,39.289c-2.652,1.273-4.277,2.031-6.686,2.031c-3.842,0-6.577-2.354-6.577-5.655c0-3.276,2.76-5.604,6.686-5.604
		c2.274,0,4.331,0.758,6.36,1.895v-4.114c-1.813-1.082-4.114-1.624-6.684-1.624c-7.064,0-11.097,4.601-11.097,9.527
		c0,4.763,3.573,9.417,10.745,9.417c2.733,0,4.681-0.514,7.253-1.84V39.289L39.058,39.289z"/>
	<polygon points="38.806,67.166 28.243,67.166 28.243,62.728 38.21,62.728 38.21,59.343 28.243,59.343 28.243,55.475 38.617,55.475 
		38.617,52.092 23.641,52.092 23.641,70.549 38.806,70.549 	"/>
	<path d="M46.257,26.462v18.459h7.633c7.361,0,10.717-3.897,10.717-9.204c0-5.06-3.464-9.255-10.204-9.255H46.257L46.257,26.462z
		 M50.858,29.846h2.951c4.357,0,6.062,2.678,6.062,5.845c0,2.706-1.38,5.845-6.008,5.845h-3.003L50.858,29.846L50.858,29.846z"/>
	<path d="M63.266,64.919c-2.653,1.271-4.275,2.028-6.684,2.028c-3.845,0-6.577-2.354-6.577-5.653c0-3.276,2.76-5.603,6.684-5.603
		c2.274,0,4.331,0.756,6.361,1.895v-4.113c-1.814-1.086-4.114-1.625-6.686-1.625c-7.063,0-11.097,4.6-11.097,9.526
		c0,4.763,3.574,9.419,10.746,9.419c2.733,0,4.683-0.514,7.253-1.84V64.919L63.266,64.919z"/>
</g>
<g>
</g>
<g>
</g>
<g>
</g>
<g>
</g>
<g>
</g>
<g>
</g>
</svg>
